<svg xmlns="http://www.w3.org/2000/svg" xmlns:xlink="http://www.w3.org/1999/xlink" width="770" zoomAndPan="magnify" viewBox="0 0 577.5 141.750002" height="189" preserveAspectRatio="xMidYMid meet" version="1.0"><defs><g/><clipPath id="d3415c343b"><path d="M 453.601562 0.566406 L 576.742188 0.566406 L 576.742188 130.949219 L 453.601562 130.949219 Z M 453.601562 0.566406 " clip-rule="nonzero"/></clipPath></defs><g clip-path="url(#d3415c343b)"><path fill="#fefefe" d="M 549.339844 3.679688 C 516 9.273438 463.597656 24.726562 454.855469 66.902344 C 454.074219 70.683594 453.636719 74.679688 453.601562 78.902344 L 465.054688 76.722656 L 468.769531 72.882812 L 498.886719 41.746094 C 498.039062 40.332031 497.597656 38.652344 497.722656 36.863281 C 498.011719 32.679688 501.445312 29.316406 505.644531 29.101562 C 510.609375 28.851562 514.6875 32.910156 514.453125 37.859375 C 514.261719 41.996094 510.984375 45.414062 506.851562 45.785156 C 505.335938 45.921875 503.898438 45.652344 502.625 45.074219 L 474.394531 74.261719 L 467.554688 81.335938 L 453.742188 83.964844 C 454.117188 89.8125 455.21875 96.070312 457.15625 102.765625 C 459.457031 110.707031 469.921875 112.507812 474.757812 105.796875 L 496.222656 76 C 495.949219 75.644531 495.699219 75.265625 495.484375 74.867188 C 494.78125 73.582031 494.40625 72.089844 494.476562 70.503906 C 494.660156 66.230469 498.128906 62.742188 502.410156 62.523438 C 507.125 62.285156 511.042969 65.9375 511.222656 70.542969 C 511.230469 70.6875 511.230469 70.832031 511.230469 70.976562 C 511.179688 75.363281 507.664062 79.015625 503.269531 79.230469 C 502.242188 79.28125 501.253906 79.148438 500.332031 78.859375 L 475.875 112.808594 C 471.691406 118.613281 474.855469 126.796875 481.859375 128.28125 C 494.410156 130.9375 504.671875 130.460938 513.128906 127.675781 L 509.480469 106.0625 L 529.132812 61.417969 C 528.699219 61.050781 528.308594 60.636719 527.957031 60.1875 C 526.761719 58.660156 526.082031 56.703125 526.199219 54.585938 C 526.425781 50.410156 529.789062 46.996094 533.972656 46.707031 C 535.804688 46.582031 537.519531 47.042969 538.953125 47.921875 C 541.351562 49.394531 542.949219 52.039062 542.949219 55.050781 C 542.949219 59.671875 539.195312 63.414062 534.566406 63.414062 C 534.289062 63.414062 534.011719 63.402344 533.742188 63.375 L 514.667969 106.703125 L 517.890625 125.785156 C 544.839844 113.101562 551.253906 74.574219 557.203125 44.382812 C 562.945312 15.238281 577.234375 0.570312 577.234375 0.570312 C 577.234375 0.570312 565.535156 0.964844 549.339844 3.679688 " fill-opacity="1" fill-rule="nonzero"/></g><path fill="#fefefe" d="M 534.566406 59.648438 C 537.109375 59.648438 539.175781 57.589844 539.175781 55.050781 C 539.175781 53.289062 538.179688 51.761719 536.722656 50.988281 C 536.082031 50.648438 535.34375 50.453125 534.566406 50.453125 C 532.023438 50.453125 529.960938 52.511719 529.960938 55.050781 C 529.960938 56.011719 530.253906 56.898438 530.753906 57.636719 C 531.585938 58.851562 532.980469 59.648438 534.566406 59.648438 " fill-opacity="1" fill-rule="nonzero"/><path fill="#fefefe" d="M 507.308594 72.042969 C 507.40625 71.667969 507.457031 71.28125 507.457031 70.878906 C 507.457031 68.335938 505.394531 66.28125 502.847656 66.28125 C 500.304688 66.28125 498.242188 68.335938 498.242188 70.878906 C 498.242188 72.160156 498.769531 73.320312 499.617188 74.15625 C 500.449219 74.972656 501.589844 75.476562 502.847656 75.476562 C 504.992188 75.476562 506.792969 74.015625 507.308594 72.042969 " fill-opacity="1" fill-rule="nonzero"/><path fill="#fefefe" d="M 506.082031 42.054688 C 508.628906 42.054688 510.691406 39.996094 510.691406 37.453125 C 510.691406 34.917969 508.628906 32.855469 506.082031 32.855469 C 503.539062 32.855469 501.476562 34.917969 501.476562 37.453125 C 501.476562 39.996094 503.539062 42.054688 506.082031 42.054688 " fill-opacity="1" fill-rule="nonzero"/><g fill="#fefefe" fill-opacity="1"><g transform="translate(0.767789, 123.381504)"><g><path d="M 7.046875 -67.203125 L 36.484375 -67.203125 L 36.484375 -58.25 L 17.1875 -58.25 L 17.1875 -39.6875 L 32.734375 -39.6875 L 32.734375 -30.546875 L 17.1875 -30.546875 L 17.1875 -9.046875 L 39.5 -9.046875 L 39.5 0 L 7.046875 0 Z M 7.046875 -67.203125 "/></g></g></g><g fill="#fefefe" fill-opacity="1"><g transform="translate(43.465484, 123.381504)"><g><path d="M 26.0625 0.921875 C 21.914062 0.921875 18.179688 0.0195312 14.859375 -1.78125 C 11.535156 -3.582031 8.894531 -6.171875 6.9375 -9.546875 C 4.988281 -12.929688 4.015625 -16.910156 4.015625 -21.484375 C 4.015625 -25.816406 4.914062 -29.613281 6.71875 -32.875 C 8.519531 -36.132812 11.050781 -38.644531 14.3125 -40.40625 C 17.570312 -42.175781 21.335938 -43.0625 25.609375 -43.0625 C 28.835938 -43.0625 31.625 -42.648438 33.96875 -41.828125 C 36.3125 -41.003906 38.15625 -39.984375 39.5 -38.765625 L 35.109375 -30.8125 C 32.546875 -33.375 29.648438 -34.65625 26.421875 -34.65625 C 22.523438 -34.65625 19.554688 -33.460938 17.515625 -31.078125 C 15.472656 -28.703125 14.453125 -25.535156 14.453125 -21.578125 C 14.453125 -17.066406 15.5 -13.5625 17.59375 -11.0625 C 19.695312 -8.5625 22.640625 -7.3125 26.421875 -7.3125 C 28.316406 -7.3125 30.160156 -7.582031 31.953125 -8.125 C 33.753906 -8.675781 35.144531 -9.320312 36.125 -10.0625 L 39.6875 -3.109375 C 38.34375 -2.066406 36.46875 -1.132812 34.0625 -0.3125 C 31.65625 0.507812 28.988281 0.921875 26.0625 0.921875 Z M 26.0625 0.921875 "/></g></g></g><g fill="#fefefe" fill-opacity="1"><g transform="translate(86.071754, 123.381504)"><g><path d="M 26.0625 0.921875 C 21.726562 0.921875 17.882812 -0.0507812 14.53125 -2 C 11.1875 -3.957031 8.597656 -6.613281 6.765625 -9.96875 C 4.929688 -13.320312 4.015625 -17.039062 4.015625 -21.125 C 4.015625 -25.144531 4.914062 -28.832031 6.71875 -32.1875 C 8.519531 -35.539062 11.09375 -38.191406 14.4375 -40.140625 C 17.789062 -42.085938 21.664062 -43.0625 26.0625 -43.0625 C 30.445312 -43.0625 34.300781 -42.085938 37.625 -40.140625 C 40.945312 -38.191406 43.503906 -35.539062 45.296875 -32.1875 C 47.097656 -28.832031 48 -25.144531 48 -21.125 C 48 -17.039062 47.082031 -13.320312 45.25 -9.96875 C 43.425781 -6.613281 40.851562 -3.957031 37.53125 -2 C 34.207031 -0.0507812 30.382812 0.921875 26.0625 0.921875 Z M 26.328125 -7.125 C 29.867188 -7.125 32.660156 -8.4375 34.703125 -11.0625 C 36.742188 -13.6875 37.765625 -16.976562 37.765625 -20.9375 C 37.765625 -24.894531 36.664062 -28.226562 34.46875 -30.9375 C 32.28125 -33.65625 29.382812 -35.015625 25.78125 -35.015625 C 22.3125 -35.015625 19.523438 -33.671875 17.421875 -30.984375 C 15.316406 -28.304688 14.265625 -24.957031 14.265625 -20.9375 C 14.265625 -17.039062 15.390625 -13.765625 17.640625 -11.109375 C 19.898438 -8.453125 22.796875 -7.125 26.328125 -7.125 Z M 26.328125 -7.125 "/></g></g></g><g fill="#fefefe" fill-opacity="1"><g transform="translate(138.095283, 123.381504)"><g><path d="M 24.40625 -31.359375 L 20.203125 -40.875 L 18.28125 -31.359375 L 12.0625 0 L 1.921875 0 L 15.8125 -67.203125 L 16.921875 -67.203125 L 35.390625 -30.90625 L 40.875 -18.75 L 46.359375 -30.90625 L 64.46875 -67.203125 L 65.46875 -67.203125 L 79.921875 0 L 69.859375 0 L 63.09375 -31.359375 L 61.078125 -40.875 L 57.421875 -31.359375 L 41.140625 0 L 40.59375 0 Z M 24.40625 -31.359375 "/></g></g></g><g fill="#fefefe" fill-opacity="1"><g transform="translate(219.924917, 123.381504)"><g><path d="M 25.046875 0.921875 C 21.273438 0.921875 17.785156 0.0195312 14.578125 -1.78125 C 11.378906 -3.582031 8.816406 -6.144531 6.890625 -9.46875 C 4.972656 -12.789062 4.015625 -16.675781 4.015625 -21.125 C 4.015625 -25.507812 4.851562 -29.347656 6.53125 -32.640625 C 8.207031 -35.929688 10.597656 -38.488281 13.703125 -40.3125 C 16.816406 -42.144531 20.476562 -43.0625 24.6875 -43.0625 C 27.125 -43.0625 29.410156 -42.632812 31.546875 -41.78125 C 33.679688 -40.925781 35.476562 -39.875 36.9375 -38.625 C 38.40625 -37.382812 39.378906 -36.148438 39.859375 -34.921875 L 40.046875 -41.96875 L 49.46875 -41.96875 L 49.46875 0 L 40.140625 0 L 39.953125 -7.40625 C 38.921875 -5.207031 37.03125 -3.269531 34.28125 -1.59375 C 31.539062 0.0820312 28.460938 0.921875 25.046875 0.921875 Z M 26.703125 -7.3125 C 30.171875 -7.3125 33.09375 -8.515625 35.46875 -10.921875 C 37.851562 -13.328125 39.046875 -16.484375 39.046875 -20.390625 L 39.046875 -21.03125 C 39.046875 -23.65625 38.492188 -26.003906 37.390625 -28.078125 C 36.296875 -30.148438 34.800781 -31.765625 32.90625 -32.921875 C 31.019531 -34.078125 28.953125 -34.65625 26.703125 -34.65625 C 22.796875 -34.65625 19.773438 -33.390625 17.640625 -30.859375 C 15.515625 -28.328125 14.453125 -25.050781 14.453125 -21.03125 C 14.453125 -16.945312 15.5 -13.640625 17.59375 -11.109375 C 19.695312 -8.578125 22.734375 -7.3125 26.703125 -7.3125 Z M 26.703125 -7.3125 "/></g></g></g><g fill="#fefefe" fill-opacity="1"><g transform="translate(276.154222, 123.381504)"><g><path d="M 44.4375 0 L 32.828125 0 L 24.328125 -13.71875 L 21.9375 -18.375 L 16.453125 -12.4375 L 16.453125 0 L 6.953125 0 L 6.953125 -67.203125 L 16.375 -67.203125 L 16.375 -30.359375 L 16.1875 -23.21875 L 32.1875 -41.96875 L 44.34375 -41.96875 L 28.53125 -24.40625 Z M 44.4375 0 "/></g></g></g><g fill="#fefefe" fill-opacity="1"><g transform="translate(321.960536, 123.381504)"><g><path d="M 26.328125 0.921875 C 21.335938 0.921875 17.164062 -0.0664062 13.8125 -2.046875 C 10.457031 -4.035156 7.984375 -6.691406 6.390625 -10.015625 C 4.804688 -13.335938 4.015625 -16.976562 4.015625 -20.9375 C 4.015625 -25.382812 4.941406 -29.285156 6.796875 -32.640625 C 8.660156 -35.992188 11.238281 -38.566406 14.53125 -40.359375 C 17.820312 -42.160156 21.539062 -43.0625 25.6875 -43.0625 C 32.15625 -43.0625 36.957031 -41.28125 40.09375 -37.71875 C 43.226562 -34.15625 44.796875 -29.140625 44.796875 -22.671875 C 44.796875 -21.023438 44.707031 -19.320312 44.53125 -17.5625 L 14.359375 -17.5625 C 15.023438 -13.84375 16.347656 -11.160156 18.328125 -9.515625 C 20.316406 -7.867188 23.078125 -7.046875 26.609375 -7.046875 C 29.535156 -7.046875 31.941406 -7.285156 33.828125 -7.765625 C 35.722656 -8.253906 37.460938 -8.925781 39.046875 -9.78125 L 42.0625 -2.75 C 40.539062 -1.769531 38.46875 -0.910156 35.84375 -0.171875 C 33.21875 0.554688 30.046875 0.921875 26.328125 0.921875 Z M 35.203125 -24.40625 C 35.265625 -28.1875 34.441406 -30.851562 32.734375 -32.40625 C 31.023438 -33.96875 28.585938 -34.75 25.421875 -34.75 C 19.015625 -34.75 15.328125 -31.300781 14.359375 -24.40625 Z M 35.203125 -24.40625 "/></g></g></g><g fill="#fefefe" fill-opacity="1"><g transform="translate(370.60116, 123.381504)"><g><path d="M 6.21875 -41.96875 L 16.09375 -41.96875 L 16.09375 -33.734375 C 17.070312 -36.546875 18.65625 -38.800781 20.84375 -40.5 C 23.039062 -42.207031 25.539062 -43.0625 28.34375 -43.0625 C 30.289062 -43.0625 31.632812 -42.878906 32.375 -42.515625 L 31 -32.546875 C 30.445312 -32.910156 29.257812 -33.09375 27.4375 -33.09375 C 24.570312 -33.09375 21.960938 -32.175781 19.609375 -30.34375 C 17.265625 -28.519531 16.09375 -25.597656 16.09375 -21.578125 L 16.09375 0 L 6.21875 0 Z M 6.21875 -41.96875 "/></g></g></g><g fill="#fefefe" fill-opacity="1"><g transform="translate(403.424448, 123.381504)"><g><path d="M 20.9375 0.921875 C 18.007812 0.921875 14.972656 0.539062 11.828125 -0.21875 C 8.691406 -0.988281 6.457031 -1.890625 5.125 -2.921875 L 8.40625 -10.703125 C 12.070312 -8.140625 16.25 -6.859375 20.9375 -6.859375 C 25.632812 -6.859375 27.984375 -8.226562 27.984375 -10.96875 C 27.984375 -12.1875 27.492188 -13.128906 26.515625 -13.796875 C 25.535156 -14.472656 23.800781 -15.269531 21.3125 -16.1875 L 17.828125 -17.46875 C 14.171875 -18.925781 11.273438 -20.675781 9.140625 -22.71875 C 7.003906 -24.757812 5.9375 -27.457031 5.9375 -30.8125 C 5.9375 -34.65625 7.445312 -37.65625 10.46875 -39.8125 C 13.488281 -41.976562 17.523438 -43.0625 22.578125 -43.0625 C 25.078125 -43.0625 27.53125 -42.785156 29.9375 -42.234375 C 32.351562 -41.691406 34.203125 -40.992188 35.484375 -40.140625 L 31.90625 -32.28125 C 31.113281 -33.070312 29.847656 -33.753906 28.109375 -34.328125 C 26.378906 -34.910156 24.445312 -35.203125 22.3125 -35.203125 C 17.976562 -35.203125 15.8125 -33.890625 15.8125 -31.265625 C 15.8125 -29.804688 16.390625 -28.695312 17.546875 -27.9375 C 18.710938 -27.175781 20.601562 -26.335938 23.21875 -25.421875 C 23.46875 -25.359375 24.414062 -25.019531 26.0625 -24.40625 C 29.957031 -22.882812 32.847656 -21.148438 34.734375 -19.203125 C 36.628906 -17.253906 37.578125 -14.753906 37.578125 -11.703125 C 37.578125 -7.554688 36.003906 -4.414062 32.859375 -2.28125 C 29.722656 -0.144531 25.75 0.921875 20.9375 0.921875 Z M 20.9375 0.921875 "/></g></g></g><g fill="#fefefe" fill-opacity="1"><g transform="translate(465.591318, 118.585808)"><g><path d="M 1.890625 -2.296875 C 1.890625 -3.203125 2.128906 -3.882812 2.609375 -4.34375 C 3.085938 -4.800781 3.789062 -5.03125 4.71875 -5.03125 C 5.601562 -5.03125 6.289062 -4.796875 6.78125 -4.328125 C 7.269531 -3.859375 7.515625 -3.179688 7.515625 -2.296875 C 7.515625 -1.453125 7.265625 -0.785156 6.765625 -0.296875 C 6.273438 0.191406 5.59375 0.4375 4.71875 0.4375 C 3.8125 0.4375 3.113281 0.195312 2.625 -0.28125 C 2.132812 -0.757812 1.890625 -1.429688 1.890625 -2.296875 Z M 1.890625 -2.296875 "/></g></g></g></svg>