<svg xmlns="http://www.w3.org/2000/svg" xmlns:xlink="http://www.w3.org/1999/xlink" width="857" zoomAndPan="magnify" viewBox="0 0 642.75 215.249992" height="287" preserveAspectRatio="xMidYMid meet" version="1.0"><defs><g/><clipPath id="aab9bb9995"><path d="M 481.007812 37.949219 L 604.375 37.949219 L 604.375 168 L 481.007812 168 Z M 481.007812 37.949219 " clip-rule="nonzero"/></clipPath></defs><g clip-path="url(#aab9bb9995)"><path fill="#fefefe" d="M 576.53125 41.058594 C 543.265625 46.636719 490.980469 62.054688 482.257812 104.140625 C 481.476562 107.914062 481.039062 111.902344 481.003906 116.117188 L 492.433594 113.9375 L 496.140625 110.105469 L 526.191406 79.035156 C 525.347656 77.628906 524.90625 75.953125 525.027344 74.167969 C 525.316406 69.992188 528.746094 66.636719 532.933594 66.421875 C 537.886719 66.171875 541.957031 70.222656 541.726562 75.160156 C 541.53125 79.289062 538.265625 82.699219 534.140625 83.070312 C 532.628906 83.203125 531.191406 82.933594 529.921875 82.359375 L 501.753906 111.484375 L 494.925781 118.542969 L 481.148438 121.164062 C 481.519531 127 482.617188 133.246094 484.554688 139.925781 C 486.847656 147.847656 497.289062 149.644531 502.113281 142.949219 L 523.535156 113.214844 C 523.257812 112.863281 523.011719 112.484375 522.796875 112.089844 C 522.09375 110.804688 521.71875 109.316406 521.789062 107.734375 C 521.976562 103.46875 525.433594 99.988281 529.707031 99.773438 C 534.410156 99.53125 538.320312 103.175781 538.5 107.773438 C 538.507812 107.917969 538.507812 108.058594 538.507812 108.207031 C 538.457031 112.585938 534.949219 116.226562 530.566406 116.441406 C 529.539062 116.492188 528.550781 116.359375 527.632812 116.070312 L 503.230469 149.945312 C 499.058594 155.738281 502.210938 163.90625 509.203125 165.386719 C 521.722656 168.035156 531.964844 167.5625 540.402344 164.78125 L 536.765625 143.214844 L 556.371094 98.667969 C 555.941406 98.300781 555.546875 97.886719 555.199219 97.441406 C 554.003906 95.914062 553.328125 93.964844 553.441406 91.851562 C 553.667969 87.683594 557.027344 84.277344 561.199219 83.988281 C 563.027344 83.863281 564.742188 84.324219 566.167969 85.203125 C 568.5625 86.671875 570.15625 89.308594 570.15625 92.316406 C 570.15625 96.925781 566.414062 100.660156 561.792969 100.660156 C 561.515625 100.660156 561.242188 100.648438 560.972656 100.621094 L 541.941406 143.855469 L 545.152344 162.894531 C 572.042969 150.238281 578.441406 111.792969 584.378906 81.667969 C 590.109375 52.589844 604.367188 37.953125 604.367188 37.953125 C 604.367188 37.953125 592.695312 38.34375 576.53125 41.058594 " fill-opacity="1" fill-rule="nonzero"/></g><path fill="#fefefe" d="M 561.792969 96.902344 C 564.332031 96.902344 566.390625 94.851562 566.390625 92.316406 C 566.390625 90.558594 565.398438 89.03125 563.945312 88.261719 C 563.304688 87.921875 562.570312 87.726562 561.792969 87.726562 C 559.253906 87.726562 557.195312 89.78125 557.195312 92.316406 C 557.195312 93.273438 557.488281 94.160156 557.992188 94.894531 C 558.816406 96.105469 560.210938 96.902344 561.792969 96.902344 " fill-opacity="1" fill-rule="nonzero"/><path fill="#fefefe" d="M 534.59375 109.269531 C 534.691406 108.898438 534.742188 108.507812 534.742188 108.105469 C 534.742188 105.574219 532.683594 103.519531 530.144531 103.519531 C 527.605469 103.519531 525.546875 105.574219 525.546875 108.105469 C 525.546875 109.386719 526.074219 110.542969 526.921875 111.375 C 527.75 112.191406 528.886719 112.695312 530.144531 112.695312 C 532.28125 112.695312 534.078125 111.238281 534.59375 109.269531 " fill-opacity="1" fill-rule="nonzero"/><path fill="#fefefe" d="M 533.371094 79.347656 C 535.910156 79.347656 537.96875 77.292969 537.96875 74.757812 C 537.96875 72.222656 535.910156 70.167969 533.371094 70.167969 C 530.832031 70.167969 528.773438 72.222656 528.773438 74.757812 C 528.773438 77.292969 530.832031 79.347656 533.371094 79.347656 " fill-opacity="1" fill-rule="nonzero"/><g fill="#fefefe" fill-opacity="1"><g transform="translate(38.375651, 151.550475)"><g><path d="M 7.75 0 L 7.75 -63.140625 L 46.171875 -63.140625 L 46.171875 -56.9375 L 14.78125 -56.9375 L 14.78125 -35.125 L 40.703125 -35.125 L 40.703125 -29.015625 L 14.78125 -29.015625 L 14.78125 -6.203125 L 46.171875 -6.203125 L 46.171875 0 Z M 7.75 0 "/></g></g></g><g fill="#fefefe" fill-opacity="1"><g transform="translate(88.834214, 151.550475)"><g><path d="M 23.640625 -46.53125 C 25.640625 -46.53125 29.046875 -46.164062 33.859375 -45.4375 L 36.046875 -45.171875 L 35.765625 -39.609375 C 30.898438 -40.148438 27.3125 -40.421875 25 -40.421875 C 19.832031 -40.421875 16.320312 -39.1875 14.46875 -36.71875 C 12.613281 -34.257812 11.6875 -29.695312 11.6875 -23.03125 C 11.6875 -16.375 12.550781 -11.738281 14.28125 -9.125 C 16.007812 -6.507812 19.613281 -5.203125 25.09375 -5.203125 L 35.859375 -6.015625 L 36.140625 -0.359375 C 30.484375 0.484375 26.253906 0.90625 23.453125 0.90625 C 16.335938 0.90625 11.425781 -0.914062 8.71875 -4.5625 C 6.007812 -8.207031 4.65625 -14.363281 4.65625 -23.03125 C 4.65625 -31.707031 6.113281 -37.789062 9.03125 -41.28125 C 11.945312 -44.78125 16.816406 -46.53125 23.640625 -46.53125 Z M 23.640625 -46.53125 "/></g></g></g><g fill="#fefefe" fill-opacity="1"><g transform="translate(128.617069, 151.550475)"><g><path d="M 4.5625 -22.90625 C 4.5625 -31.238281 6.050781 -37.257812 9.03125 -40.96875 C 12.007812 -44.675781 17.039062 -46.53125 24.125 -46.53125 C 31.21875 -46.53125 36.238281 -44.675781 39.1875 -40.96875 C 42.144531 -37.257812 43.625 -31.238281 43.625 -22.90625 C 43.625 -14.570312 42.222656 -8.519531 39.421875 -4.75 C 36.617188 -0.976562 31.503906 0.90625 24.078125 0.90625 C 16.660156 0.90625 11.550781 -0.976562 8.75 -4.75 C 5.957031 -8.519531 4.5625 -14.570312 4.5625 -22.90625 Z M 11.59375 -23.03125 C 11.59375 -16.375 12.394531 -11.707031 14 -9.03125 C 15.613281 -6.351562 18.988281 -5.015625 24.125 -5.015625 C 29.269531 -5.015625 32.632812 -6.335938 34.21875 -8.984375 C 35.800781 -11.628906 36.59375 -16.296875 36.59375 -22.984375 C 36.59375 -29.679688 35.707031 -34.289062 33.9375 -36.8125 C 32.175781 -39.34375 28.90625 -40.609375 24.125 -40.609375 C 19.351562 -40.609375 16.070312 -39.34375 14.28125 -36.8125 C 12.488281 -34.289062 11.59375 -29.695312 11.59375 -23.03125 Z M 11.59375 -23.03125 "/></g></g></g><g fill="#fefefe" fill-opacity="1"><g transform="translate(176.794456, 151.550475)"><g><path d="M 7.75 0 L 7.75 -63.140625 L 20.4375 -63.140625 L 38.328125 -9.765625 L 56.203125 -63.140625 L 68.890625 -63.140625 L 68.890625 0 L 61.875 0 L 61.875 -55.65625 L 60.59375 -55.65625 L 42.25 -2.28125 L 34.40625 -2.28125 L 16.0625 -55.65625 L 14.78125 -55.65625 L 14.78125 0 Z M 7.75 0 "/></g></g></g><g fill="#fefefe" fill-opacity="1"><g transform="translate(253.440367, 151.550475)"><g><path d="M 38.78125 -31.84375 L 38.78125 -8.484375 C 38.96875 -6.234375 40.734375 -4.894531 44.078125 -4.46875 L 43.796875 0.90625 C 38.992188 0.90625 35.375 -0.304688 32.9375 -2.734375 C 27.46875 -0.304688 21.992188 0.90625 16.515625 0.90625 C 12.316406 0.90625 9.125 -0.273438 6.9375 -2.640625 C 4.75 -5.015625 3.65625 -8.421875 3.65625 -12.859375 C 3.65625 -17.304688 4.78125 -20.578125 7.03125 -22.671875 C 9.28125 -24.773438 12.804688 -26.066406 17.609375 -26.546875 L 31.9375 -27.921875 L 31.9375 -31.84375 C 31.9375 -34.945312 31.265625 -37.164062 29.921875 -38.5 C 28.585938 -39.84375 26.765625 -40.515625 24.453125 -40.515625 C 19.585938 -40.515625 14.539062 -40.210938 9.3125 -39.609375 L 6.484375 -39.328125 L 6.203125 -44.53125 C 12.898438 -45.863281 18.832031 -46.53125 24 -46.53125 C 29.164062 -46.53125 32.921875 -45.34375 35.265625 -42.96875 C 37.609375 -40.601562 38.78125 -36.894531 38.78125 -31.84375 Z M 10.671875 -13.234375 C 10.671875 -7.640625 12.984375 -4.84375 17.609375 -4.84375 C 21.742188 -4.84375 25.820312 -5.539062 29.84375 -6.9375 L 31.9375 -7.671875 L 31.9375 -22.71875 L 18.4375 -21.4375 C 15.695312 -21.195312 13.71875 -20.40625 12.5 -19.0625 C 11.28125 -17.726562 10.671875 -15.785156 10.671875 -13.234375 Z M 10.671875 -13.234375 "/></g></g></g><g fill="#fefefe" fill-opacity="1"><g transform="translate(299.15419, 151.550475)"><g><path d="M 13.40625 0 L 6.5625 0 L 6.5625 -65.515625 L 13.40625 -65.515625 L 13.40625 -26.828125 L 20.53125 -27.1875 L 33.578125 -45.625 L 41.34375 -45.625 L 26.46875 -24.640625 L 41.96875 0 L 34.21875 0 L 20.625 -21.171875 L 13.40625 -20.890625 Z M 13.40625 0 "/></g></g></g><g fill="#fefefe" fill-opacity="1"><g transform="translate(342.860596, 151.550475)"><g><path d="M 37.59375 -5.65625 L 40.234375 -5.9375 L 40.421875 -0.546875 C 33.484375 0.421875 27.550781 0.90625 22.625 0.90625 C 16.0625 0.90625 11.410156 -0.992188 8.671875 -4.796875 C 5.929688 -8.597656 4.5625 -14.507812 4.5625 -22.53125 C 4.5625 -38.53125 10.921875 -46.53125 23.640625 -46.53125 C 29.773438 -46.53125 34.363281 -44.8125 37.40625 -41.375 C 40.445312 -37.9375 41.96875 -32.539062 41.96875 -25.1875 L 41.609375 -19.984375 L 11.5 -19.984375 C 11.5 -14.929688 12.410156 -11.1875 14.234375 -8.75 C 16.054688 -6.320312 19.234375 -5.109375 23.765625 -5.109375 C 28.296875 -5.109375 32.90625 -5.289062 37.59375 -5.65625 Z M 35.125 -25.453125 C 35.125 -31.054688 34.226562 -35.007812 32.4375 -37.3125 C 30.644531 -39.625 27.722656 -40.78125 23.671875 -40.78125 C 19.628906 -40.78125 16.585938 -39.5625 14.546875 -37.125 C 12.515625 -34.695312 11.46875 -30.804688 11.40625 -25.453125 Z M 35.125 -25.453125 "/></g></g></g><g fill="#fefefe" fill-opacity="1"><g transform="translate(388.939372, 151.550475)"><g><path d="M 6.5625 0 L 6.5625 -45.625 L 13.328125 -45.625 L 13.328125 -39.421875 C 18.617188 -43.066406 24.179688 -45.46875 30.015625 -46.625 L 30.015625 -39.6875 C 27.460938 -39.207031 24.800781 -38.445312 22.03125 -37.40625 C 19.269531 -36.375 17.15625 -35.460938 15.6875 -34.671875 L 13.40625 -33.484375 L 13.40625 0 Z M 6.5625 0 "/></g></g></g><g fill="#fefefe" fill-opacity="1"><g transform="translate(420.510171, 151.550475)"><g><path d="M 20.890625 -40.421875 C 14.265625 -40.421875 10.953125 -38.109375 10.953125 -33.484375 C 10.953125 -31.359375 11.710938 -29.851562 13.234375 -28.96875 C 14.753906 -28.09375 18.21875 -27.179688 23.625 -26.234375 C 29.039062 -25.285156 32.875 -23.957031 35.125 -22.25 C 37.375 -20.550781 38.5 -17.359375 38.5 -12.671875 C 38.5 -7.992188 36.992188 -4.5625 33.984375 -2.375 C 30.972656 -0.1875 26.582031 0.90625 20.8125 0.90625 C 17.03125 0.90625 12.585938 0.484375 7.484375 -0.359375 L 4.75 -0.828125 L 5.109375 -6.75 C 12.046875 -5.71875 17.273438 -5.203125 20.796875 -5.203125 C 24.328125 -5.203125 27.019531 -5.765625 28.875 -6.890625 C 30.726562 -8.015625 31.65625 -9.898438 31.65625 -12.546875 C 31.65625 -15.191406 30.863281 -16.984375 29.28125 -17.921875 C 27.707031 -18.867188 24.242188 -19.769531 18.890625 -20.625 C 13.535156 -21.476562 9.734375 -22.722656 7.484375 -24.359375 C 5.234375 -26.003906 4.109375 -29.046875 4.109375 -33.484375 C 4.109375 -37.929688 5.671875 -41.21875 8.796875 -43.34375 C 11.929688 -45.46875 15.84375 -46.53125 20.53125 -46.53125 C 24.238281 -46.53125 28.894531 -46.109375 34.5 -45.265625 L 37.046875 -44.796875 L 36.859375 -38.96875 C 30.109375 -39.9375 24.785156 -40.421875 20.890625 -40.421875 Z M 20.890625 -40.421875 "/></g></g></g></svg>
