<svg xmlns="http://www.w3.org/2000/svg" xmlns:xlink="http://www.w3.org/1999/xlink" width="165" zoomAndPan="magnify" viewBox="0 0 123.75 131.999998" height="176" preserveAspectRatio="xMidYMid meet" version="1.0"><defs><g/><clipPath id="44a155b664"><path d="M 0 0.699219 L 123.5 0.699219 L 123.5 131 L 0 131 Z M 0 0.699219 " clip-rule="nonzero"/></clipPath></defs><g clip-path="url(#44a155b664)"><path fill="#058090" d="M 95.820312 3.816406 C 62.453125 9.414062 10.003906 24.878906 1.257812 67.097656 C 0.472656 70.882812 0.0351562 74.878906 0 79.109375 L 11.460938 76.925781 L 15.179688 73.082031 L 45.324219 41.914062 C 44.480469 40.503906 44.035156 38.820312 44.160156 37.03125 C 44.449219 32.839844 47.886719 29.476562 52.089844 29.261719 C 57.058594 29.007812 61.140625 33.074219 60.90625 38.023438 C 60.710938 42.167969 57.4375 45.589844 53.296875 45.960938 C 51.78125 46.09375 50.339844 45.824219 49.066406 45.246094 L 20.8125 74.464844 L 13.964844 81.542969 L 0.140625 84.171875 C 0.515625 90.027344 1.617188 96.292969 3.558594 102.992188 C 5.859375 110.941406 16.335938 112.742188 21.175781 106.023438 L 42.660156 76.199219 C 42.382812 75.84375 42.136719 75.464844 41.921875 75.070312 C 41.214844 73.78125 40.839844 72.289062 40.910156 70.699219 C 41.097656 66.421875 44.566406 62.929688 48.851562 62.714844 C 53.570312 62.472656 57.492188 66.128906 57.671875 70.738281 C 57.679688 70.882812 57.679688 71.027344 57.679688 71.171875 C 57.628906 75.566406 54.109375 79.21875 49.714844 79.4375 C 48.683594 79.484375 47.695312 79.351562 46.773438 79.0625 L 22.292969 113.042969 C 18.109375 118.851562 21.273438 127.046875 28.285156 128.53125 C 40.84375 131.1875 51.113281 130.710938 59.582031 127.925781 L 55.929688 106.289062 L 75.597656 61.605469 C 75.164062 61.238281 74.773438 60.824219 74.421875 60.375 C 73.222656 58.84375 72.546875 56.886719 72.660156 54.769531 C 72.886719 50.589844 76.257812 47.171875 80.441406 46.882812 C 82.277344 46.757812 83.992188 47.21875 85.425781 48.097656 C 87.828125 49.574219 89.425781 52.21875 89.425781 55.234375 C 89.425781 59.855469 85.671875 63.605469 81.039062 63.605469 C 80.757812 63.605469 80.484375 63.589844 80.210938 63.566406 L 61.121094 106.933594 L 64.34375 126.03125 C 91.320312 113.335938 97.738281 74.773438 103.695312 44.554688 C 109.441406 15.386719 123.742188 0.703125 123.742188 0.703125 C 123.742188 0.703125 112.035156 1.097656 95.820312 3.816406 " fill-opacity="1" fill-rule="nonzero"/></g><path fill="#058090" d="M 81.039062 59.835938 C 83.585938 59.835938 85.648438 57.777344 85.648438 55.234375 C 85.648438 53.46875 84.65625 51.941406 83.195312 51.167969 C 82.550781 50.824219 81.816406 50.632812 81.039062 50.632812 C 78.492188 50.632812 76.425781 52.691406 76.425781 55.234375 C 76.425781 56.195312 76.71875 57.082031 77.222656 57.820312 C 78.054688 59.039062 79.453125 59.835938 81.039062 59.835938 " fill-opacity="1" fill-rule="nonzero"/><path fill="#058090" d="M 53.753906 72.238281 C 53.851562 71.867188 53.902344 71.476562 53.902344 71.074219 C 53.902344 68.53125 51.835938 66.472656 49.289062 66.472656 C 46.742188 66.472656 44.679688 68.53125 44.679688 71.074219 C 44.679688 72.359375 45.207031 73.519531 46.054688 74.355469 C 46.890625 75.171875 48.03125 75.675781 49.289062 75.675781 C 51.433594 75.675781 53.238281 74.21875 53.753906 72.238281 " fill-opacity="1" fill-rule="nonzero"/><path fill="#058090" d="M 52.527344 42.226562 C 55.074219 42.226562 57.140625 40.164062 57.140625 37.621094 C 57.140625 35.082031 55.074219 33.019531 52.527344 33.019531 C 49.980469 33.019531 47.914062 35.082031 47.914062 37.621094 C 47.914062 40.164062 49.980469 42.226562 52.527344 42.226562 " fill-opacity="1" fill-rule="nonzero"/><g fill="#fefefe" fill-opacity="1"><g transform="translate(11.999999, 118.825258)"><g><path d="M 1.890625 -2.296875 C 1.890625 -3.203125 2.128906 -3.882812 2.609375 -4.34375 C 3.085938 -4.8125 3.789062 -5.046875 4.71875 -5.046875 C 5.613281 -5.046875 6.304688 -4.804688 6.796875 -4.328125 C 7.285156 -3.859375 7.53125 -3.179688 7.53125 -2.296875 C 7.53125 -1.453125 7.28125 -0.785156 6.78125 -0.296875 C 6.289062 0.191406 5.601562 0.4375 4.71875 0.4375 C 3.820312 0.4375 3.125 0.195312 2.625 -0.28125 C 2.132812 -0.757812 1.890625 -1.429688 1.890625 -2.296875 Z M 1.890625 -2.296875 "/></g></g></g></svg>