<svg xmlns="http://www.w3.org/2000/svg" xmlns:xlink="http://www.w3.org/1999/xlink" width="754" zoomAndPan="magnify" viewBox="0 0 565.5 141.750002" height="189" preserveAspectRatio="xMidYMid meet" version="1.0"><defs><g/><clipPath id="ea5b524263"><path d="M 441.609375 0.566406 L 564.753906 0.566406 L 564.753906 130.953125 L 441.609375 130.953125 Z M 441.609375 0.566406 " clip-rule="nonzero"/></clipPath></defs><g clip-path="url(#ea5b524263)"><path fill="#058090" d="M 537.347656 3.679688 C 504.007812 9.273438 451.605469 24.726562 442.867188 66.902344 C 442.082031 70.6875 441.644531 74.679688 441.609375 78.90625 L 453.0625 76.722656 L 456.777344 72.882812 L 486.894531 41.746094 C 486.050781 40.335938 485.605469 38.65625 485.730469 36.863281 C 486.019531 32.679688 489.457031 29.316406 493.652344 29.101562 C 498.617188 28.851562 502.699219 32.910156 502.464844 37.859375 C 502.269531 41.996094 498.996094 45.414062 494.863281 45.785156 C 493.347656 45.921875 491.90625 45.652344 490.636719 45.074219 L 462.402344 74.265625 L 455.5625 81.335938 L 441.75 83.96875 C 442.125 89.816406 443.226562 96.074219 445.164062 102.769531 C 447.464844 110.710938 457.929688 112.511719 462.765625 105.800781 L 484.234375 76 C 483.957031 75.644531 483.710938 75.265625 483.492188 74.871094 C 482.789062 73.582031 482.414062 72.089844 482.484375 70.507812 C 482.671875 66.230469 486.136719 62.742188 490.417969 62.527344 C 495.132812 62.285156 499.050781 65.9375 499.234375 70.542969 C 499.238281 70.6875 499.242188 70.832031 499.238281 70.976562 C 499.1875 75.367188 495.671875 79.019531 491.28125 79.234375 C 490.253906 79.285156 489.261719 79.148438 488.339844 78.859375 L 463.882812 112.8125 C 459.703125 118.613281 462.863281 126.800781 469.871094 128.285156 C 482.417969 130.941406 492.679688 130.464844 501.140625 127.679688 L 497.492188 106.0625 L 517.144531 61.417969 C 516.710938 61.050781 516.316406 60.636719 515.96875 60.191406 C 514.769531 58.660156 514.09375 56.703125 514.207031 54.589844 C 514.433594 50.410156 517.800781 46.996094 521.980469 46.707031 C 523.8125 46.582031 525.53125 47.042969 526.960938 47.921875 C 529.359375 49.394531 530.957031 52.039062 530.957031 55.050781 C 530.957031 59.671875 527.207031 63.417969 522.578125 63.417969 C 522.296875 63.417969 522.023438 63.402344 521.753906 63.375 L 502.679688 106.707031 L 505.898438 125.785156 C 532.851562 113.101562 539.261719 74.574219 545.214844 44.382812 C 550.957031 15.238281 565.246094 0.570312 565.246094 0.570312 C 565.246094 0.570312 553.546875 0.964844 537.347656 3.679688 " fill-opacity="1" fill-rule="nonzero"/></g><path fill="#058090" d="M 522.578125 59.652344 C 525.121094 59.652344 527.183594 57.59375 527.183594 55.050781 C 527.183594 53.289062 526.191406 51.761719 524.734375 50.988281 C 524.089844 50.648438 523.355469 50.453125 522.578125 50.453125 C 520.03125 50.453125 517.96875 52.515625 517.96875 55.050781 C 517.96875 56.011719 518.261719 56.902344 518.765625 57.636719 C 519.59375 58.851562 520.992188 59.652344 522.578125 59.652344 " fill-opacity="1" fill-rule="nonzero"/><path fill="#058090" d="M 495.316406 72.042969 C 495.414062 71.671875 495.464844 71.28125 495.464844 70.878906 C 495.464844 68.339844 493.402344 66.28125 490.859375 66.28125 C 488.3125 66.28125 486.25 68.339844 486.25 70.878906 C 486.25 72.164062 486.777344 73.324219 487.625 74.15625 C 488.457031 74.972656 489.597656 75.476562 490.859375 75.476562 C 493 75.476562 494.800781 74.019531 495.316406 72.042969 " fill-opacity="1" fill-rule="nonzero"/><path fill="#058090" d="M 494.09375 42.054688 C 496.636719 42.054688 498.699219 39.996094 498.699219 37.457031 C 498.699219 34.917969 496.636719 32.859375 494.09375 32.859375 C 491.546875 32.859375 489.484375 34.917969 489.484375 37.457031 C 489.484375 39.996094 491.546875 42.054688 494.09375 42.054688 " fill-opacity="1" fill-rule="nonzero"/><g fill="#058090" fill-opacity="1"><g transform="translate(0.341585, 117.389041)"><g><path d="M 12.070312 -6.582031 L 12.070312 -28.710938 L 44.625 -28.710938 L 44.625 -35.296875 L 12.070312 -35.296875 L 12.070312 -57.425781 L 47.457031 -57.425781 L 47.457031 -64.007812 L 5.488281 -64.007812 L 5.488281 0 L 48.007812 0 L 48.007812 -6.582031 Z M 12.070312 -6.582031 "/></g></g></g><g fill="#058090" fill-opacity="1"><g transform="translate(52.914664, 117.389041)"><g><path d="M 23.957031 -5.761719 C 14.90625 -5.761719 9.417969 -12.894531 9.417969 -21.945312 C 9.417969 -31 14.90625 -38.3125 23.867188 -38.3125 C 29.351562 -38.3125 33.652344 -35.664062 36.300781 -31.640625 L 42.0625 -34.382812 C 38.40625 -40.601562 31.914062 -44.714844 23.867188 -44.714844 C 11.339844 -44.714844 2.742188 -34.566406 2.742188 -21.945312 C 2.742188 -9.417969 11.339844 0.640625 23.957031 0.640625 C 31.914062 0.640625 38.40625 -3.292969 42.0625 -9.511719 L 36.300781 -12.34375 C 33.652344 -8.230469 29.351562 -5.761719 23.957031 -5.761719 Z M 23.957031 -5.761719 "/></g></g></g><g fill="#058090" fill-opacity="1"><g transform="translate(97.258915, 117.389041)"><g><path d="M 24.414062 -44.714844 C 11.886719 -44.714844 3.199219 -34.566406 3.199219 -21.945312 C 3.199219 -9.328125 11.886719 0.730469 24.414062 0.730469 C 37.035156 0.730469 45.902344 -9.328125 45.902344 -21.945312 C 45.902344 -34.566406 37.035156 -44.714844 24.414062 -44.714844 Z M 24.414062 -5.761719 C 15.363281 -5.761719 9.875 -12.894531 9.875 -21.945312 C 9.875 -31 15.363281 -38.3125 24.414062 -38.3125 C 33.46875 -38.3125 39.230469 -31 39.230469 -21.945312 C 39.230469 -12.894531 33.46875 -5.761719 24.414062 -5.761719 Z M 24.414062 -5.761719 "/></g></g></g><g fill="#058090" fill-opacity="1"><g transform="translate(146.3576, 117.389041)"><g><path d="M 62.636719 -64.007812 L 37.308594 -24.140625 L 12.070312 -64.007812 L 5.945312 -64.007812 L 5.945312 0 L 12.617188 0 L 12.617188 -51.300781 L 35.023438 -16.003906 L 39.503906 -16.003906 L 62.089844 -51.300781 L 62.089844 0 L 68.765625 0 L 68.765625 -64.007812 Z M 62.636719 -64.007812 "/></g></g></g><g fill="#058090" fill-opacity="1"><g transform="translate(221.057086, 117.389041)"><g><path d="M 38.863281 0 C 38.863281 0 38.769531 -20.574219 38.769531 -29.535156 C 38.769531 -38.863281 32.828125 -44.714844 22.585938 -44.714844 C 11.796875 -44.714844 6.675781 -38.496094 5.488281 -32.554688 L 11.339844 -31.183594 C 12.4375 -34.929688 14.628906 -38.769531 22.402344 -38.769531 C 30.816406 -38.769531 32.371094 -33.925781 32.460938 -30.90625 C 32.554688 -27.980469 29.902344 -26.699219 23.042969 -25.605469 C 9.511719 -23.410156 2.742188 -19.476562 2.742188 -10.789062 C 2.742188 -3.382812 8.777344 0.640625 16.917969 0.640625 C 23.226562 0.640625 28.347656 -1.921875 32.277344 -5.304688 L 32.277344 0 Z M 17.464844 -5.578125 C 15.269531 -5.578125 9.691406 -6.402344 9.691406 -11.246094 C 9.691406 -16.09375 14.449219 -18.015625 23.957031 -19.570312 C 27.25 -20.117188 30.085938 -20.484375 32.460938 -20.941406 L 32.460938 -18.929688 C 32.554688 -10.972656 26.0625 -5.578125 17.464844 -5.578125 Z M 17.464844 -5.578125 "/></g></g></g><g fill="#058090" fill-opacity="1"><g transform="translate(264.029857, 117.389041)"><g><path d="M 33.742188 0 L 41.878906 0 L 22.769531 -26.335938 L 39.136719 -44.074219 L 30.175781 -44.074219 L 11.613281 -23.957031 L 11.613281 -64.007812 L 5.03125 -64.007812 L 5.03125 0 L 11.613281 0 L 11.613281 -14.265625 L 18.195312 -21.398438 Z M 33.742188 0 "/></g></g></g><g fill="#058090" fill-opacity="1"><g transform="translate(307.276931, 117.389041)"><g><path d="M 23.683594 -44.714844 C 11.15625 -44.714844 2.742188 -34.566406 2.742188 -21.945312 C 2.742188 -9.417969 11.703125 0.640625 24.230469 0.640625 C 32.277344 0.640625 38.496094 -3.292969 42.15625 -9.511719 L 36.394531 -12.34375 C 33.742188 -8.230469 29.71875 -5.761719 24.230469 -5.761719 C 16.003906 -5.761719 10.515625 -11.703125 9.601562 -19.660156 L 43.527344 -19.660156 C 43.527344 -20.390625 43.617188 -21.214844 43.617188 -21.945312 C 43.617188 -34.566406 36.300781 -44.714844 23.683594 -44.714844 Z M 23.683594 -38.3125 C 31.273438 -38.3125 35.570312 -33.195312 36.851562 -26.242188 L 9.875 -26.242188 C 11.246094 -33.195312 16.183594 -38.3125 23.683594 -38.3125 Z M 23.683594 -38.3125 "/></g></g></g><g fill="#058090" fill-opacity="1"><g transform="translate(354.089825, 117.389041)"><g><path d="M 23.957031 -44.714844 C 18.652344 -44.714844 14.265625 -42.519531 11.246094 -38.953125 L 11.246094 -44.074219 L 4.570312 -44.074219 L 4.570312 0 L 11.246094 0 L 11.246094 -23.773438 C 11.246094 -33.46875 16.183594 -38.132812 22.953125 -38.132812 C 24.050781 -38.132812 25.054688 -38.039062 25.96875 -37.855469 L 27.25 -44.53125 C 26.152344 -44.625 25.054688 -44.714844 23.957031 -44.714844 Z M 23.957031 -44.714844 "/></g></g></g><g fill="#058090" fill-opacity="1"><g transform="translate(382.250707, 117.389041)"><g><path d="M 20.300781 -25.421875 C 13.898438 -26.882812 9.875 -27.890625 9.328125 -31.363281 C 8.6875 -34.929688 11.703125 -38.3125 18.105469 -38.132812 C 23.042969 -37.949219 26.335938 -36.027344 27.433594 -32.828125 L 33.558594 -35.207031 C 31.546875 -40.964844 25.695312 -44.714844 18.015625 -44.714844 C 8.230469 -44.714844 1.644531 -38.132812 2.742188 -30.265625 C 4.023438 -22.039062 12.4375 -20.300781 19.019531 -19.019531 C 26.792969 -17.375 29.078125 -16.003906 29.078125 -12.527344 C 29.078125 -7.132812 23.316406 -5.851562 19.660156 -5.851562 C 13.808594 -5.851562 9.691406 -8.136719 8.320312 -12.070312 L 2.285156 -9.601562 C 4.664062 -3.476562 11.15625 0.730469 19.660156 0.730469 C 27.617188 0.730469 35.753906 -3.292969 35.753906 -12.527344 C 35.753906 -20.941406 27.707031 -23.867188 20.300781 -25.421875 Z M 20.300781 -25.421875 "/></g></g></g></svg>