<svg xmlns="http://www.w3.org/2000/svg" xmlns:xlink="http://www.w3.org/1999/xlink" width="1759" zoomAndPan="magnify" viewBox="0 0 1319.25 442.499987" height="590" preserveAspectRatio="xMidYMid meet" version="1.0"><defs><g/></defs><path fill="#ffffff" d="M 871.964844 440.433594 C 812.605469 440.433594 761.609375 420.113281 717.175781 379.472656 C 689.585938 354.214844 666.847656 323.242188 645.910156 291.046875 C 625 322.980469 602.230469 354.1875 574.640625 379.472656 C 526.636719 423.453125 471.632812 443.25 406.203125 440.054688 C 282.226562 439.5625 181.277344 341.53125 181.277344 221.085938 C 181.277344 100.320312 282.777344 2.085938 407.800781 2.085938 C 415.875 1.945312 423.941406 2.199219 431.992188 2.851562 C 440.042969 3.5 448.042969 4.542969 455.992188 5.976562 C 463.941406 7.410156 471.800781 9.230469 479.570312 11.433594 C 487.339844 13.636719 494.984375 16.21875 502.503906 19.171875 C 510.019531 22.125 517.375 25.4375 524.566406 29.113281 C 531.761719 32.789062 538.757812 36.804688 545.554688 41.164062 C 552.351562 45.527344 558.921875 50.207031 565.261719 55.210938 C 571.601562 60.214844 577.679688 65.519531 583.5 71.117188 C 607.488281 93.472656 627.757812 119.308594 646.226562 146.390625 C 664.699219 119.308594 684.96875 93.441406 708.957031 71.117188 C 714.777344 65.519531 720.855469 60.214844 727.195312 55.210938 C 733.535156 50.207031 740.101562 45.527344 746.902344 41.164062 C 753.699219 36.804688 760.695312 32.789062 767.886719 29.113281 C 775.078125 25.4375 782.433594 22.125 789.953125 19.171875 C 797.46875 16.21875 805.113281 13.636719 812.882812 11.433594 C 820.65625 9.230469 828.515625 7.410156 836.464844 5.976562 C 844.414062 4.542969 852.414062 3.5 860.464844 2.851562 C 868.515625 2.199219 876.578125 1.945312 884.65625 2.085938 C 1009.417969 2.085938 1111.175781 100.320312 1111.175781 221.085938 C 1111.175781 341.5 1010.230469 439.5625 885.960938 440.085938 C 881.492188 440.300781 877.019531 440.410156 872.546875 440.40625 Z M 691.328125 218.183594 C 716.101562 258.332031 740.117188 295.691406 769.390625 322.515625 C 802.441406 352.792969 837.261719 365.246094 882.273438 363.15625 L 884.308594 363.097656 C 966.40625 363.097656 1033.230469 299.234375 1033.230469 221.433594 C 1033.230469 143.632812 966.4375 79.769531 884.308594 79.769531 C 878.648438 79.640625 873 79.789062 867.355469 80.222656 C 861.710938 80.65625 856.105469 81.367188 850.53125 82.355469 C 844.957031 83.34375 839.449219 84.609375 834 86.144531 C 828.554688 87.683594 823.199219 89.484375 817.929688 91.554688 C 812.664062 93.625 807.511719 95.949219 802.472656 98.53125 C 797.4375 101.113281 792.542969 103.9375 787.789062 107.007812 C 783.03125 110.074219 778.441406 113.371094 774.011719 116.898438 C 769.585938 120.421875 765.34375 124.15625 761.289062 128.101562 C 734.804688 152.71875 712.933594 184.277344 691.359375 218.558594 Z M 407.800781 79.390625 C 325.699219 79.390625 258.875 143.257812 258.875 221.054688 C 258.875 298.855469 325.671875 362.722656 407.800781 362.722656 L 409.832031 362.777344 C 454.847656 365.160156 489.695312 352.707031 522.714844 322.136719 C 551.988281 295.3125 576.035156 258.273438 600.777344 217.804688 C 579.171875 183.550781 557.304688 151.964844 530.847656 127.347656 C 495.417969 94.398438 456.296875 79.015625 407.800781 79.015625 Z M 894.589844 193.011719 L 894.589844 151.09375 L 850.96875 151.09375 L 850.96875 193.011719 L 809.03125 193.011719 L 809.03125 236.441406 L 850.96875 236.441406 L 850.96875 278.679688 L 894.617188 278.679688 L 894.617188 236.441406 L 936.550781 236.441406 L 936.550781 193.011719 L 894.617188 193.011719 M 344.722656 192.230469 L 482.550781 192.230469 L 482.550781 236.992188 L 344.722656 236.992188 Z M 344.722656 192.230469 " fill-opacity="1" fill-rule="nonzero"/><g fill="#fdfdff" fill-opacity="1"><g transform="translate(656.931988, 274.53445)"><g><path d="M 1.03125 -1.25 C 1.03125 -1.75 1.160156 -2.125 1.421875 -2.375 C 1.679688 -2.625 2.066406 -2.75 2.578125 -2.75 C 3.054688 -2.75 3.425781 -2.617188 3.6875 -2.359375 C 3.957031 -2.097656 4.09375 -1.726562 4.09375 -1.25 C 4.09375 -0.789062 3.957031 -0.425781 3.6875 -0.15625 C 3.425781 0.101562 3.054688 0.234375 2.578125 0.234375 C 2.078125 0.234375 1.691406 0.101562 1.421875 -0.15625 C 1.160156 -0.414062 1.03125 -0.78125 1.03125 -1.25 Z M 1.03125 -1.25 "/></g></g></g></svg>