<svg xmlns="http://www.w3.org/2000/svg" xmlns:xlink="http://www.w3.org/1999/xlink" width="1759" zoomAndPan="magnify" viewBox="0 0 1319.25 474.749981" height="633" preserveAspectRatio="xMidYMid meet" version="1.0"><defs><g/><clipPath id="2448ab3724"><path d="M 410.015625 3 L 1023.917969 3 L 1023.917969 472 L 410.015625 472 Z M 410.015625 3 " clip-rule="nonzero"/></clipPath></defs><g clip-path="url(#2448ab3724)"><path fill="#ffffff" d="M 605.347656 372.539062 L 459.894531 227.007812 L 410.539062 276.390625 L 605.347656 471.308594 L 1023.917969 52.507812 L 974.5625 3.125 Z M 605.347656 372.539062 " fill-opacity="1" fill-rule="nonzero"/></g><g fill="#fdfdff" fill-opacity="1"><g transform="translate(656.930477, 346.657527)"><g><path d="M 1.03125 -1.25 C 1.03125 -1.75 1.160156 -2.125 1.421875 -2.375 C 1.679688 -2.625 2.066406 -2.75 2.578125 -2.75 C 3.054688 -2.75 3.425781 -2.617188 3.6875 -2.359375 C 3.957031 -2.097656 4.09375 -1.726562 4.09375 -1.25 C 4.09375 -0.789062 3.957031 -0.425781 3.6875 -0.15625 C 3.425781 0.101562 3.054688 0.234375 2.578125 0.234375 C 2.078125 0.234375 1.691406 0.101562 1.421875 -0.15625 C 1.160156 -0.414062 1.03125 -0.78125 1.03125 -1.25 Z M 1.03125 -1.25 "/></g></g></g></svg>