<svg xmlns="http://www.w3.org/2000/svg" xmlns:xlink="http://www.w3.org/1999/xlink" width="3190" zoomAndPan="magnify" viewBox="0 0 2392.5 2251.49996" height="3002" preserveAspectRatio="xMidYMid meet" version="1.0"><defs><g/><clipPath id="a599ecf538"><path d="M 0.367188 1 L 2391.984375 1 L 2391.984375 2247 L 0.367188 2247 Z M 0.367188 1 " clip-rule="nonzero"/></clipPath></defs><g clip-path="url(#a599ecf538)"><path fill="#00a896" d="M 1570.109375 1887.304688 C 1576.582031 1893.542969 1586.316406 1893.542969 1592.785156 1887.304688 C 1599.023438 1880.835938 1599.023438 1871.101562 1592.785156 1864.632812 C 1587.308594 1859.332031 1579.496094 1858.515625 1573.316406 1862.1875 L 1362.707031 1651.621094 L 484.132812 1651.621094 L 383.230469 1550.742188 L 174.835938 1550.742188 C 173.027344 1543.804688 166.789062 1538.675781 159.328125 1538.675781 C 150.527344 1538.675781 143.300781 1545.902344 143.300781 1554.703125 C 143.300781 1563.503906 150.527344 1570.730469 159.328125 1570.730469 C 166.789062 1570.730469 173.085938 1565.601562 174.835938 1558.667969 L 379.90625 1558.667969 L 480.808594 1659.550781 L 1359.386719 1659.550781 L 1567.664062 1867.78125 C 1563.992188 1874.015625 1564.808594 1881.886719 1570.109375 1887.304688 M 1776.464844 2237.679688 C 1788.824219 2250.035156 1809.050781 2250.035156 1821.464844 2237.679688 C 1833.824219 2225.324219 1833.824219 2205.101562 1821.464844 2192.6875 C 1811.03125 2182.257812 1795 2180.625 1782.820312 2187.792969 L 1392.902344 1797.960938 L 938.285156 1797.960938 L 826.363281 1909.859375 L 309.371094 1909.859375 C 305.816406 1896.164062 293.34375 1886.023438 278.59375 1886.023438 C 261.105469 1886.023438 246.765625 1900.300781 246.765625 1917.84375 C 246.765625 1935.328125 261.050781 1949.664062 278.59375 1949.664062 C 293.34375 1949.664062 305.816406 1939.523438 309.371094 1925.828125 L 832.953125 1925.828125 L 944.871094 1813.929688 L 1386.316406 1813.929688 L 1771.566406 2199.101562 C 1764.398438 2211.222656 1766.03125 2227.25 1776.464844 2237.679688 Z M 1340.734375 1756.058594 C 1349.535156 1756.058594 1356.761719 1748.832031 1356.761719 1740.03125 C 1356.761719 1731.234375 1349.535156 1724.007812 1340.734375 1724.007812 C 1333.269531 1724.007812 1326.976562 1729.132812 1325.226562 1736.070312 L 738.808594 1736.070312 L 658.132812 1816.730469 L 31.785156 1816.730469 C 30.039062 1809.792969 23.742188 1804.664062 16.28125 1804.664062 C 7.480469 1804.664062 0.25 1811.890625 0.25 1820.691406 C 0.25 1829.492188 7.480469 1836.71875 16.28125 1836.71875 C 23.742188 1836.71875 30.039062 1831.589844 31.785156 1824.65625 L 661.398438 1824.65625 L 742.074219 1743.996094 L 1325.226562 1743.996094 C 1326.976562 1750.871094 1333.269531 1756.058594 1340.734375 1756.058594 Z M 2344.054688 2106.027344 C 2370.34375 2106.027344 2391.734375 2084.582031 2391.734375 2058.355469 C 2391.734375 2032.128906 2370.285156 2010.683594 2344.054688 2010.683594 C 2321.902344 2010.683594 2303.191406 2025.953125 2297.886719 2046.464844 L 1858.832031 2046.464844 L 1762.066406 1949.722656 L 1762.066406 1505.050781 L 1598.265625 1341.285156 L 1010.625 1341.285156 L 928.667969 1423.226562 L 725.226562 1423.226562 C 719.921875 1402.710938 701.210938 1387.441406 679.058594 1387.441406 C 652.828125 1387.441406 631.378906 1408.890625 631.378906 1435.113281 C 631.378906 1461.339844 652.828125 1482.789062 679.058594 1482.789062 C 701.210938 1482.789062 719.921875 1467.519531 725.226562 1447.003906 L 938.574219 1447.003906 L 1020.535156 1365.0625 L 1588.414062 1365.0625 L 1738.226562 1514.839844 L 1738.226562 1959.511719 L 1848.980469 2070.242188 L 2297.945312 2070.242188 C 2303.191406 2090.757812 2321.902344 2106.027344 2344.054688 2106.027344 Z M 2344.054688 1996.695312 C 2352.855469 1996.695312 2360.082031 1989.46875 2360.082031 1980.667969 C 2360.082031 1971.867188 2352.855469 1964.640625 2344.054688 1964.640625 C 2336.59375 1964.640625 2330.296875 1969.769531 2328.546875 1976.707031 L 1949.476562 1976.707031 L 1881.449219 1908.695312 L 1881.449219 1565.3125 L 1524.351562 1208.292969 L 1006.488281 1208.292969 L 875.039062 1339.710938 L 551.460938 1339.710938 C 549.710938 1332.777344 543.414062 1327.648438 535.953125 1327.648438 C 527.152344 1327.648438 519.921875 1334.875 519.921875 1343.675781 C 519.921875 1352.476562 527.152344 1359.703125 535.953125 1359.703125 C 543.414062 1359.703125 549.710938 1354.574219 551.460938 1347.636719 L 878.300781 1347.636719 L 1009.75 1216.21875 L 1520.972656 1216.21875 L 1873.402344 1568.574219 L 1873.402344 1911.957031 L 1946.152344 1984.632812 L 2328.546875 1984.632812 C 2330.296875 1991.566406 2336.59375 1996.695312 2344.054688 1996.695312 Z M 2344.054688 1908.460938 C 2352.855469 1908.460938 2360.082031 1901.234375 2360.082031 1892.433594 C 2360.082031 1883.632812 2352.855469 1876.40625 2344.054688 1876.40625 C 2336.59375 1876.40625 2330.296875 1881.535156 2328.546875 1888.472656 L 2037.671875 1888.472656 L 1989.636719 1840.449219 L 1989.636719 1683.09375 L 2068.914062 1603.835938 L 1583.285156 1118.308594 L 1583.285156 925.171875 L 1304.535156 646.480469 C 1308.207031 640.300781 1307.390625 632.433594 1302.085938 627.011719 C 1295.613281 620.777344 1285.878906 620.777344 1279.410156 627.011719 C 1273.171875 633.480469 1273.171875 643.214844 1279.410156 649.683594 C 1284.890625 654.988281 1292.699219 655.804688 1298.878906 652.132812 L 1575.300781 928.492188 L 1575.300781 1121.628906 L 2057.664062 1603.890625 L 1981.652344 1679.890625 L 1981.652344 1843.828125 L 2034.347656 1896.511719 L 2328.488281 1896.511719 C 2330.296875 1903.332031 2336.59375 1908.460938 2344.054688 1908.460938 Z M 2344.054688 1805.945312 C 2352.855469 1805.945312 2360.082031 1798.71875 2360.082031 1789.921875 C 2360.082031 1781.121094 2352.855469 1773.894531 2344.054688 1773.894531 C 2336.59375 1773.894531 2330.296875 1779.023438 2328.546875 1785.957031 L 2258.480469 1785.957031 L 2160.492188 1675.167969 L 2160.492188 1511.695312 L 1756.878906 1108.167969 L 1756.878906 643.507812 L 1907.445312 492.96875 L 1907.445312 32.621094 C 1914.382812 30.875 1919.511719 24.578125 1919.511719 17.117188 C 1919.511719 8.320312 1912.285156 1.09375 1903.484375 1.09375 C 1894.679688 1.09375 1887.453125 8.320312 1887.453125 17.117188 C 1887.453125 24.578125 1892.582031 30.875 1899.519531 32.621094 L 1899.519531 489.648438 L 1748.953125 640.183594 L 1748.953125 1111.429688 L 2152.566406 1514.957031 L 2152.566406 1678.140625 L 2254.925781 1793.882812 L 2328.546875 1793.882812 C 2330.296875 1800.820312 2336.59375 1805.945312 2344.054688 1805.945312 Z M 2332.746094 1440.011719 C 2339.214844 1446.246094 2348.949219 1446.246094 2355.421875 1440.011719 C 2361.65625 1433.542969 2361.65625 1423.808594 2355.421875 1417.339844 C 2349.941406 1412.035156 2342.128906 1411.21875 2335.949219 1414.890625 L 1983.632812 1062.652344 L 1983.632812 447.511719 C 1990.570312 445.765625 1995.699219 439.46875 1995.699219 432.011719 C 1995.699219 423.210938 1988.472656 415.984375 1979.671875 415.984375 C 1970.867188 415.984375 1963.640625 423.210938 1963.640625 432.011719 C 1963.640625 439.46875 1968.769531 445.765625 1975.707031 447.511719 L 1975.707031 1065.972656 L 2330.355469 1420.546875 C 2326.625 1426.722656 2327.441406 1434.53125 2332.746094 1440.011719 Z M 2332.746094 1022.730469 C 2339.214844 1028.964844 2348.949219 1028.964844 2355.421875 1022.730469 C 2361.65625 1016.261719 2361.65625 1006.527344 2355.421875 1000.058594 C 2349.941406 994.757812 2342.128906 993.941406 2335.949219 997.613281 L 2145.804688 807.503906 L 2145.804688 302.046875 C 2152.738281 300.242188 2157.871094 294.003906 2157.871094 286.542969 C 2157.871094 277.746094 2150.640625 270.519531 2141.839844 270.519531 C 2133.035156 270.519531 2125.808594 277.746094 2125.808594 286.542969 C 2125.808594 294.003906 2130.9375 300.296875 2137.875 302.046875 L 2137.875 810.828125 L 2330.355469 1003.265625 C 2326.625 1009.441406 2327.441406 1017.25 2332.746094 1022.730469 Z M 2321.550781 1596.605469 C 2333.910156 1608.960938 2354.136719 1608.960938 2366.554688 1596.605469 C 2378.910156 1584.253906 2378.910156 1564.027344 2366.554688 1551.617188 C 2356.121094 1541.183594 2340.089844 1539.550781 2327.90625 1546.71875 L 1886.230469 1105.136719 L 1886.230469 739.375 C 1899.925781 735.820312 1910.070312 723.347656 1910.070312 708.605469 C 1910.070312 691.121094 1895.789062 676.785156 1878.242188 676.785156 C 1860.753906 676.785156 1846.414062 691.0625 1846.414062 708.605469 C 1846.414062 723.347656 1856.558594 735.820312 1870.257812 739.375 L 1870.257812 1111.722656 L 2316.597656 1557.96875 C 2309.484375 1570.148438 2311.117188 1586.175781 2321.550781 1596.605469 Z M 2344.054688 2168.5625 C 2352.855469 2168.5625 2360.082031 2161.335938 2360.082031 2152.535156 C 2360.082031 2143.734375 2352.855469 2136.507812 2344.054688 2136.507812 C 2336.59375 2136.507812 2330.296875 2141.636719 2328.546875 2148.570312 L 1793.425781 2148.570312 L 1646.707031 2001.882812 L 1646.707031 1783.683594 L 1375.472656 1512.511719 L 788.941406 1512.511719 C 787.191406 1505.574219 780.898438 1500.445312 773.433594 1500.445312 C 764.632812 1500.445312 757.40625 1507.671875 757.40625 1516.472656 C 757.40625 1525.273438 764.632812 1532.5 773.433594 1532.5 C 780.898438 1532.5 787.191406 1527.371094 788.941406 1520.4375 L 1372.152344 1520.4375 L 1638.722656 1786.949219 L 1638.722656 2005.144531 L 1790.105469 2156.496094 L 2328.488281 2156.496094 C 2330.296875 2163.375 2336.59375 2168.5625 2344.054688 2168.5625 Z M 2344.054688 2168.5625 " fill-opacity="1" fill-rule="nonzero"/></g><g fill="#00a896" fill-opacity="1"><g transform="translate(677.25674, 1439.531024)"><g><path d="M 0.5 -0.96875 C 0.5 -1.332031 0.601562 -1.609375 0.8125 -1.796875 C 1.03125 -1.992188 1.34375 -2.09375 1.75 -2.09375 C 2.132812 -2.09375 2.429688 -1.992188 2.640625 -1.796875 C 2.847656 -1.609375 2.953125 -1.332031 2.953125 -0.96875 C 2.953125 -0.625 2.84375 -0.351562 2.625 -0.15625 C 2.414062 0.0390625 2.125 0.140625 1.75 0.140625 C 1.363281 0.140625 1.054688 0.046875 0.828125 -0.140625 C 0.609375 -0.335938 0.5 -0.613281 0.5 -0.96875 Z M 0.5 -0.96875 "/></g></g></g></svg>