<svg xmlns="http://www.w3.org/2000/svg" xmlns:xlink="http://www.w3.org/1999/xlink" width="850" zoomAndPan="magnify" viewBox="0 0 637.5 215.249992" height="287" preserveAspectRatio="xMidYMid meet" version="1.0"><defs><g/><clipPath id="4fbcc8cfed"><path d="M 0.859375 0 L 636.144531 0 L 636.144531 214.503906 L 0.859375 214.503906 Z M 0.859375 0 " clip-rule="nonzero"/></clipPath><clipPath id="f517702999"><path d="M 475.828125 38.011719 L 599.242188 38.011719 L 599.242188 168 L 475.828125 168 Z M 475.828125 38.011719 " clip-rule="nonzero"/></clipPath></defs><g clip-path="url(#4fbcc8cfed)"><path fill="#ffffff" d="M 0.859375 0 L 636.640625 0 L 636.640625 222.152344 L 0.859375 222.152344 Z M 0.859375 0 " fill-opacity="1" fill-rule="nonzero"/><path fill="#ffffff" d="M 0.859375 0 L 636.640625 0 L 636.640625 214.671875 L 0.859375 214.671875 Z M 0.859375 0 " fill-opacity="1" fill-rule="nonzero"/></g><g clip-path="url(#f517702999)"><path fill="#fefefe" d="M 571.390625 41.121094 C 538.113281 46.703125 485.804688 62.125 477.078125 104.226562 C 476.296875 108.003906 475.859375 111.992188 475.824219 116.207031 L 487.257812 114.03125 L 490.964844 110.195312 L 521.03125 79.113281 C 520.183594 77.707031 519.742188 76.03125 519.867188 74.242188 C 520.15625 70.066406 523.585938 66.707031 527.773438 66.496094 C 532.730469 66.242188 536.804688 70.296875 536.570312 75.234375 C 536.375 79.367188 533.105469 82.777344 528.980469 83.148438 C 527.46875 83.285156 526.03125 83.015625 524.761719 82.4375 L 496.582031 111.574219 L 489.753906 118.632812 L 475.964844 121.261719 C 476.339844 127.097656 477.441406 133.34375 479.375 140.027344 C 481.671875 147.953125 492.117188 149.75 496.945312 143.050781 L 518.371094 113.308594 C 518.097656 112.953125 517.847656 112.574219 517.632812 112.179688 C 516.929688 110.894531 516.558594 109.40625 516.625 107.824219 C 516.8125 103.558594 520.273438 100.074219 524.546875 99.859375 C 529.253906 99.617188 533.164062 103.261719 533.34375 107.863281 C 533.351562 108.003906 533.351562 108.148438 533.351562 108.292969 C 533.300781 112.675781 529.789062 116.320312 525.40625 116.535156 C 524.378906 116.585938 523.390625 116.449219 522.472656 116.160156 L 498.058594 150.050781 C 493.886719 155.84375 497.042969 164.015625 504.035156 165.496094 C 516.558594 168.148438 526.804688 167.675781 535.246094 164.894531 L 531.605469 143.316406 L 551.222656 98.753906 C 550.789062 98.386719 550.398438 97.972656 550.046875 97.527344 C 548.851562 96 548.175781 94.046875 548.292969 91.933594 C 548.519531 87.765625 551.878906 84.355469 556.050781 84.070312 C 557.882812 83.945312 559.59375 84.40625 561.023438 85.28125 C 563.417969 86.75 565.011719 89.390625 565.011719 92.398438 C 565.011719 97.007812 561.265625 100.746094 556.644531 100.746094 C 556.367188 100.746094 556.09375 100.734375 555.824219 100.707031 L 536.785156 143.957031 L 540 163.003906 C 566.902344 150.34375 573.300781 111.886719 579.242188 81.746094 C 584.972656 52.65625 599.234375 38.015625 599.234375 38.015625 C 599.234375 38.015625 587.558594 38.40625 571.390625 41.121094 " fill-opacity="1" fill-rule="nonzero"/></g><path fill="#fefefe" d="M 556.644531 96.988281 C 559.183594 96.988281 561.246094 94.933594 561.246094 92.398438 C 561.246094 90.640625 560.253906 89.113281 558.796875 88.339844 C 558.15625 88 557.421875 87.808594 556.644531 87.808594 C 554.105469 87.808594 552.046875 89.863281 552.046875 92.398438 C 552.046875 93.355469 552.339844 94.242188 552.839844 94.976562 C 553.667969 96.191406 555.0625 96.988281 556.644531 96.988281 " fill-opacity="1" fill-rule="nonzero"/><path fill="#fefefe" d="M 529.433594 109.359375 C 529.53125 108.984375 529.582031 108.597656 529.582031 108.195312 C 529.582031 105.660156 527.523438 103.605469 524.984375 103.605469 C 522.445312 103.605469 520.382812 105.660156 520.382812 108.195312 C 520.382812 109.476562 520.910156 110.636719 521.757812 111.46875 C 522.589844 112.28125 523.726562 112.785156 524.984375 112.785156 C 527.121094 112.785156 528.921875 111.328125 529.433594 109.359375 " fill-opacity="1" fill-rule="nonzero"/><path fill="#fefefe" d="M 528.210938 79.425781 C 530.753906 79.425781 532.8125 77.371094 532.8125 74.832031 C 532.8125 72.300781 530.753906 70.242188 528.210938 70.242188 C 525.671875 70.242188 523.613281 72.300781 523.613281 74.832031 C 523.613281 77.371094 525.671875 79.425781 528.210938 79.425781 " fill-opacity="1" fill-rule="nonzero"/><g fill="#fefefe" fill-opacity="1"><g transform="translate(38.952625, 151.942319)"><g><path d="M 7.765625 0 L 7.765625 -63.171875 L 46.1875 -63.171875 L 46.1875 -56.953125 L 14.78125 -56.953125 L 14.78125 -35.140625 L 40.71875 -35.140625 L 40.71875 -29.03125 L 14.78125 -29.03125 L 14.78125 -6.203125 L 46.1875 -6.203125 L 46.1875 0 Z M 7.765625 0 "/></g></g></g><g fill="#fefefe" fill-opacity="1"><g transform="translate(89.43113, 151.942319)"><g><path d="M 23.640625 -46.546875 C 25.648438 -46.546875 29.054688 -46.179688 33.859375 -45.453125 L 36.0625 -45.1875 L 35.78125 -39.609375 C 30.914062 -40.160156 27.328125 -40.4375 25.015625 -40.4375 C 19.835938 -40.4375 16.320312 -39.203125 14.46875 -36.734375 C 12.613281 -34.273438 11.6875 -29.710938 11.6875 -23.046875 C 11.6875 -16.378906 12.550781 -11.738281 14.28125 -9.125 C 16.019531 -6.507812 19.628906 -5.203125 25.109375 -5.203125 L 35.875 -6.03125 L 36.140625 -0.359375 C 30.484375 0.484375 26.253906 0.90625 23.453125 0.90625 C 16.335938 0.90625 11.425781 -0.914062 8.71875 -4.5625 C 6.007812 -8.21875 4.65625 -14.378906 4.65625 -23.046875 C 4.65625 -31.722656 6.113281 -37.804688 9.03125 -41.296875 C 11.957031 -44.796875 16.828125 -46.546875 23.640625 -46.546875 Z M 23.640625 -46.546875 "/></g></g></g><g fill="#fefefe" fill-opacity="1"><g transform="translate(129.229708, 151.942319)"><g><path d="M 4.5625 -22.90625 C 4.5625 -31.25 6.050781 -37.273438 9.03125 -40.984375 C 12.019531 -44.691406 17.054688 -46.546875 24.140625 -46.546875 C 31.234375 -46.546875 36.253906 -44.691406 39.203125 -40.984375 C 42.148438 -37.273438 43.625 -31.25 43.625 -22.90625 C 43.625 -14.570312 42.222656 -8.519531 39.421875 -4.75 C 36.628906 -0.976562 31.519531 0.90625 24.09375 0.90625 C 16.675781 0.90625 11.566406 -0.976562 8.765625 -4.75 C 5.960938 -8.519531 4.5625 -14.570312 4.5625 -22.90625 Z M 11.59375 -23.046875 C 11.59375 -16.378906 12.398438 -11.707031 14.015625 -9.03125 C 15.628906 -6.351562 19.003906 -5.015625 24.140625 -5.015625 C 29.285156 -5.015625 32.648438 -6.335938 34.234375 -8.984375 C 35.816406 -11.640625 36.609375 -16.3125 36.609375 -23 C 36.609375 -29.695312 35.722656 -34.304688 33.953125 -36.828125 C 32.191406 -39.359375 28.921875 -40.625 24.140625 -40.625 C 19.367188 -40.625 16.082031 -39.359375 14.28125 -36.828125 C 12.488281 -34.304688 11.59375 -29.710938 11.59375 -23.046875 Z M 11.59375 -23.046875 "/></g></g></g><g fill="#fefefe" fill-opacity="1"><g transform="translate(177.426136, 151.942319)"><g><path d="M 7.765625 0 L 7.765625 -63.171875 L 20.453125 -63.171875 L 38.34375 -9.765625 L 56.234375 -63.171875 L 68.921875 -63.171875 L 68.921875 0 L 61.890625 0 L 61.890625 -55.6875 L 60.609375 -55.6875 L 42.265625 -2.28125 L 34.40625 -2.28125 L 16.0625 -55.6875 L 14.78125 -55.6875 L 14.78125 0 Z M 7.765625 0 "/></g></g></g><g fill="#fefefe" fill-opacity="1"><g transform="translate(254.10234, 151.942319)"><g><path d="M 38.796875 -31.859375 L 38.796875 -8.484375 C 38.972656 -6.234375 40.738281 -4.894531 44.09375 -4.46875 L 43.8125 0.90625 C 39.007812 0.90625 35.390625 -0.304688 32.953125 -2.734375 C 27.472656 -0.304688 21.992188 0.90625 16.515625 0.90625 C 12.316406 0.90625 9.125 -0.273438 6.9375 -2.640625 C 4.75 -5.015625 3.65625 -8.421875 3.65625 -12.859375 C 3.65625 -17.304688 4.78125 -20.578125 7.03125 -22.671875 C 9.28125 -24.773438 12.8125 -26.070312 17.625 -26.5625 L 31.953125 -27.9375 L 31.953125 -31.859375 C 31.953125 -34.960938 31.28125 -37.179688 29.9375 -38.515625 C 28.601562 -39.859375 26.78125 -40.53125 24.46875 -40.53125 C 19.59375 -40.53125 14.539062 -40.222656 9.3125 -39.609375 L 6.484375 -39.34375 L 6.203125 -44.546875 C 12.898438 -45.878906 18.832031 -46.546875 24 -46.546875 C 29.175781 -46.546875 32.9375 -45.359375 35.28125 -42.984375 C 37.625 -40.617188 38.796875 -36.910156 38.796875 -31.859375 Z M 10.6875 -13.234375 C 10.6875 -7.640625 13 -4.84375 17.625 -4.84375 C 21.757812 -4.84375 25.832031 -5.539062 29.84375 -6.9375 L 31.953125 -7.671875 L 31.953125 -22.734375 L 18.4375 -21.453125 C 15.695312 -21.210938 13.71875 -20.421875 12.5 -19.078125 C 11.289062 -17.734375 10.6875 -15.785156 10.6875 -13.234375 Z M 10.6875 -13.234375 "/></g></g></g><g fill="#fefefe" fill-opacity="1"><g transform="translate(299.83423, 151.942319)"><g><path d="M 13.421875 0 L 6.578125 0 L 6.578125 -65.546875 L 13.421875 -65.546875 L 13.421875 -26.84375 L 20.53125 -27.203125 L 33.59375 -45.640625 L 41.34375 -45.640625 L 26.46875 -24.640625 L 41.984375 0 L 34.234375 0 L 20.625 -21.171875 L 13.421875 -20.90625 Z M 13.421875 0 "/></g></g></g><g fill="#fefefe" fill-opacity="1"><g transform="translate(343.55791, 151.942319)"><g><path d="M 37.609375 -5.65625 L 40.25 -5.9375 L 40.4375 -0.546875 C 33.5 0.421875 27.566406 0.90625 22.640625 0.90625 C 16.066406 0.90625 11.410156 -0.992188 8.671875 -4.796875 C 5.929688 -8.597656 4.5625 -14.515625 4.5625 -22.546875 C 4.5625 -38.546875 10.921875 -46.546875 23.640625 -46.546875 C 29.785156 -46.546875 34.378906 -44.828125 37.421875 -41.390625 C 40.460938 -37.953125 41.984375 -32.550781 41.984375 -25.1875 L 41.625 -19.984375 L 11.5 -19.984375 C 11.5 -14.941406 12.410156 -11.203125 14.234375 -8.765625 C 16.066406 -6.328125 19.25 -5.109375 23.78125 -5.109375 C 28.3125 -5.109375 32.921875 -5.289062 37.609375 -5.65625 Z M 35.140625 -25.46875 C 35.140625 -31.0625 34.238281 -35.015625 32.4375 -37.328125 C 30.644531 -39.640625 27.726562 -40.796875 23.6875 -40.796875 C 19.644531 -40.796875 16.601562 -39.578125 14.5625 -37.140625 C 12.519531 -34.710938 11.46875 -30.820312 11.40625 -25.46875 Z M 35.140625 -25.46875 "/></g></g></g><g fill="#fefefe" fill-opacity="1"><g transform="translate(389.654898, 151.942319)"><g><path d="M 6.578125 0 L 6.578125 -45.640625 L 13.328125 -45.640625 L 13.328125 -39.4375 C 18.617188 -43.082031 24.1875 -45.484375 30.03125 -46.640625 L 30.03125 -39.703125 C 27.476562 -39.222656 24.816406 -38.460938 22.046875 -37.421875 C 19.273438 -36.390625 17.160156 -35.476562 15.703125 -34.6875 L 13.421875 -33.5 L 13.421875 0 Z M 6.578125 0 "/></g></g></g><g fill="#fefefe" fill-opacity="1"><g transform="translate(421.238175, 151.942319)"><g><path d="M 20.90625 -40.4375 C 14.269531 -40.4375 10.953125 -38.125 10.953125 -33.5 C 10.953125 -31.375 11.710938 -29.867188 13.234375 -28.984375 C 14.753906 -28.097656 18.222656 -27.179688 23.640625 -26.234375 C 29.054688 -25.296875 32.890625 -23.972656 35.140625 -22.265625 C 37.390625 -20.566406 38.515625 -17.375 38.515625 -12.6875 C 38.515625 -8 37.007812 -4.5625 34 -2.375 C 30.988281 -0.1875 26.59375 0.90625 20.8125 0.90625 C 17.039062 0.90625 12.597656 0.484375 7.484375 -0.359375 L 4.75 -0.828125 L 5.109375 -6.75 C 12.046875 -5.71875 17.28125 -5.203125 20.8125 -5.203125 C 24.34375 -5.203125 27.035156 -5.765625 28.890625 -6.890625 C 30.742188 -8.015625 31.671875 -9.898438 31.671875 -12.546875 C 31.671875 -15.191406 30.878906 -16.988281 29.296875 -17.9375 C 27.710938 -18.882812 24.242188 -19.78125 18.890625 -20.625 C 13.535156 -21.476562 9.734375 -22.726562 7.484375 -24.375 C 5.234375 -26.019531 4.109375 -29.0625 4.109375 -33.5 C 4.109375 -37.9375 5.675781 -41.21875 8.8125 -43.34375 C 11.945312 -45.476562 15.851562 -46.546875 20.53125 -46.546875 C 24.25 -46.546875 28.90625 -46.125 34.5 -45.28125 L 37.0625 -44.8125 L 36.875 -38.984375 C 30.125 -39.953125 24.800781 -40.4375 20.90625 -40.4375 Z M 20.90625 -40.4375 "/></g></g></g></svg>
