<svg xmlns="http://www.w3.org/2000/svg" xmlns:xlink="http://www.w3.org/1999/xlink" width="1759" zoomAndPan="magnify" viewBox="0 0 1319.25 472.499986" height="630" preserveAspectRatio="xMidYMid meet" version="1.0"><defs><g/><clipPath id="d2a043647f"><path d="M 410 0.601562 L 860 0.601562 L 860 471.851562 L 410 471.851562 Z M 410 0.601562 " clip-rule="nonzero"/></clipPath><clipPath id="959213138c"><path d="M 339.714844 197 L 391 197 L 391 361 L 339.714844 361 Z M 339.714844 197 " clip-rule="nonzero"/></clipPath><clipPath id="bf943722d4"><path d="M 879 197 L 930.839844 197 L 930.839844 361 L 879 361 Z M 879 197 " clip-rule="nonzero"/></clipPath></defs><g clip-path="url(#d2a043647f)"><path fill="#ffffff" d="M 760.113281 471.820312 L 510.089844 471.820312 C 455.03125 471.820312 410.359375 427.09375 410.359375 372.3125 L 410.359375 210.050781 C 410.359375 154.921875 455.03125 110.195312 510.089844 110.195312 L 624.367188 110.195312 L 624.714844 72.058594 C 609.824219 67.550781 598.742188 53.679688 598.742188 37.039062 C 598.742188 16.929688 615.363281 0.632812 635.449219 0.632812 C 655.535156 0.632812 672.15625 16.929688 672.15625 37.039062 C 672.15625 53.679688 660.726562 67.894531 645.492188 72.402344 L 645.144531 110.195312 L 760.113281 110.195312 C 814.828125 110.195312 859.5 154.921875 859.5 210.050781 L 859.5 372.660156 C 859.5 427.441406 814.828125 471.820312 760.113281 471.820312 Z M 541.257812 314.414062 C 511.820312 314.414062 488.621094 291.183594 488.621094 262.058594 C 488.621094 232.585938 511.820312 209.355469 541.257812 209.355469 C 570.691406 209.355469 593.546875 232.585938 593.546875 262.058594 C 593.546875 291.183594 570.691406 314.414062 541.257812 314.414062 Z M 541.257812 230.160156 C 523.25 230.160156 509.398438 244.027344 509.398438 262.058594 C 509.398438 279.742188 523.25 293.609375 541.257812 293.609375 C 558.917969 293.609375 573.117188 279.742188 573.117188 262.058594 C 573.117188 244.027344 558.917969 230.160156 541.257812 230.160156 Z M 729.292969 312.332031 C 699.859375 312.332031 676.3125 288.753906 676.3125 259.632812 C 676.3125 230.507812 699.859375 206.929688 729.292969 206.929688 C 758.035156 206.929688 781.585938 230.507812 781.585938 259.632812 C 781.585938 288.753906 758.035156 312.332031 729.292969 312.332031 Z M 729.292969 227.734375 C 711.289062 227.734375 697.089844 242.296875 697.089844 259.632812 C 697.089844 277.3125 711.289062 291.875 729.292969 291.875 C 746.957031 291.875 760.808594 277.3125 760.808594 259.632812 C 760.808594 241.601562 746.609375 227.734375 729.292969 227.734375 Z M 631.292969 375.433594 C 611.554688 375.433594 594.238281 366.074219 584.542969 357.75 C 580.042969 353.9375 579.695312 347.003906 583.503906 343.191406 C 587.3125 339.027344 593.546875 338.335938 598.050781 342.496094 C 601.164062 345.269531 631.292969 369.195312 660.035156 342.84375 C 664.191406 339.027344 670.425781 339.027344 674.925781 343.191406 C 678.734375 347.695312 678.734375 353.9375 674.582031 358.097656 C 660.035156 370.582031 645.144531 375.433594 631.292969 375.433594 Z M 631.292969 375.433594 " fill-opacity="1" fill-rule="evenodd"/></g><g clip-path="url(#959213138c)"><path fill="#ffffff" d="M 389.578125 360.527344 L 385.425781 360.527344 C 360.492188 360.527344 339.714844 340.070312 339.714844 314.757812 L 339.714844 244.027344 C 339.714844 218.71875 360.492188 197.914062 385.425781 197.914062 L 390.273438 197.914062 C 389.925781 201.730469 389.578125 205.890625 389.578125 210.050781 Z M 389.578125 360.527344 " fill-opacity="1" fill-rule="evenodd"/></g><g clip-path="url(#bf943722d4)"><path fill="#ffffff" d="M 884.433594 360.527344 L 880.277344 360.527344 L 880.277344 210.050781 C 880.277344 205.542969 879.933594 201.382812 879.585938 197.570312 L 884.433594 197.570312 C 910.058594 197.570312 930.839844 218.023438 930.839844 243.683594 L 930.839844 314.757812 C 930.839844 340.417969 910.058594 360.527344 884.433594 360.527344 Z M 884.433594 360.527344 " fill-opacity="1" fill-rule="evenodd"/></g><g fill="#fdfdff" fill-opacity="1"><g transform="translate(656.759195, 302.249589)"><g><path d="M 1.03125 -1.25 C 1.03125 -1.75 1.160156 -2.125 1.421875 -2.375 C 1.679688 -2.625 2.066406 -2.75 2.578125 -2.75 C 3.054688 -2.75 3.425781 -2.617188 3.6875 -2.359375 C 3.957031 -2.097656 4.09375 -1.726562 4.09375 -1.25 C 4.09375 -0.789062 3.957031 -0.425781 3.6875 -0.15625 C 3.425781 0.101562 3.054688 0.234375 2.578125 0.234375 C 2.078125 0.234375 1.691406 0.101562 1.421875 -0.15625 C 1.160156 -0.414062 1.03125 -0.78125 1.03125 -1.25 Z M 1.03125 -1.25 "/></g></g></g></svg>