<svg xmlns="http://www.w3.org/2000/svg" xmlns:xlink="http://www.w3.org/1999/xlink" width="1276" zoomAndPan="magnify" viewBox="0 0 956.88 437.999984" height="584" preserveAspectRatio="xMidYMid meet" version="1.0"><defs><clipPath id="8999771852"><path d="M 460.140625 288.710938 L 604.125 288.710938 L 604.125 432.691406 L 460.140625 432.691406 Z M 460.140625 288.710938 " clip-rule="nonzero"/></clipPath><clipPath id="fcc0f4b675"><path d="M 532.132812 288.710938 C 492.375 288.710938 460.140625 320.941406 460.140625 360.703125 C 460.140625 400.460938 492.375 432.691406 532.132812 432.691406 C 571.890625 432.691406 604.125 400.460938 604.125 360.703125 C 604.125 320.941406 571.890625 288.710938 532.132812 288.710938 Z M 532.132812 288.710938 " clip-rule="nonzero"/></clipPath><clipPath id="91bf0a8127"><path d="M 262.511719 0.371094 L 532.132812 0.371094 L 532.132812 269.992188 L 262.511719 269.992188 Z M 262.511719 0.371094 " clip-rule="nonzero"/></clipPath><clipPath id="7aa68bb054"><path d="M 397.320312 0.371094 C 322.867188 0.371094 262.511719 60.730469 262.511719 135.183594 C 262.511719 209.636719 322.867188 269.992188 397.320312 269.992188 C 471.777344 269.992188 532.132812 209.636719 532.132812 135.183594 C 532.132812 60.730469 471.777344 0.371094 397.320312 0.371094 Z M 397.320312 0.371094 " clip-rule="nonzero"/></clipPath><clipPath id="c9fc8883ea"><path d="M 620.171875 113.792969 L 795.089844 113.792969 L 795.089844 288.710938 L 620.171875 288.710938 Z M 620.171875 113.792969 " clip-rule="nonzero"/></clipPath><clipPath id="5e4a683a93"><path d="M 707.628906 113.792969 C 659.328125 113.792969 620.171875 152.949219 620.171875 201.253906 C 620.171875 249.554688 659.328125 288.710938 707.628906 288.710938 C 755.933594 288.710938 795.089844 249.554688 795.089844 201.253906 C 795.089844 152.949219 755.933594 113.792969 707.628906 113.792969 Z M 707.628906 113.792969 " clip-rule="nonzero"/></clipPath><clipPath id="76a6c1c431"><path d="M 0.292969 203.296875 L 234.453125 203.296875 L 234.453125 437.457031 L 0.292969 437.457031 Z M 0.292969 203.296875 " clip-rule="nonzero"/></clipPath><clipPath id="89c34bb556"><path d="M 117.371094 203.296875 C 52.710938 203.296875 0.292969 255.714844 0.292969 320.375 C 0.292969 385.039062 52.710938 437.457031 117.371094 437.457031 C 182.035156 437.457031 234.453125 385.039062 234.453125 320.375 C 234.453125 255.714844 182.035156 203.296875 117.371094 203.296875 Z M 117.371094 203.296875 " clip-rule="nonzero"/></clipPath><clipPath id="2e73044e8c"><path d="M 882.828125 77.140625 L 956.132812 77.140625 L 956.132812 150.445312 L 882.828125 150.445312 Z M 882.828125 77.140625 " clip-rule="nonzero"/></clipPath><clipPath id="5b6874755a"><path d="M 919.480469 77.140625 C 899.238281 77.140625 882.828125 93.550781 882.828125 113.792969 C 882.828125 134.035156 899.238281 150.445312 919.480469 150.445312 C 939.722656 150.445312 956.132812 134.035156 956.132812 113.792969 C 956.132812 93.550781 939.722656 77.140625 919.480469 77.140625 Z M 919.480469 77.140625 " clip-rule="nonzero"/></clipPath></defs><g clip-path="url(#8999771852)"><g clip-path="url(#fcc0f4b675)"><path fill="#00a896" d="M 460.140625 288.710938 L 604.125 288.710938 L 604.125 432.691406 L 460.140625 432.691406 Z M 460.140625 288.710938 " fill-opacity="1" fill-rule="nonzero"/></g></g><g clip-path="url(#91bf0a8127)"><g clip-path="url(#7aa68bb054)"><path fill="#00a896" d="M 262.511719 0.371094 L 532.132812 0.371094 L 532.132812 269.992188 L 262.511719 269.992188 Z M 262.511719 0.371094 " fill-opacity="1" fill-rule="nonzero"/></g></g><g clip-path="url(#c9fc8883ea)"><g clip-path="url(#5e4a683a93)"><path fill="#00a896" d="M 620.171875 113.792969 L 795.089844 113.792969 L 795.089844 288.710938 L 620.171875 288.710938 Z M 620.171875 113.792969 " fill-opacity="1" fill-rule="nonzero"/></g></g><g clip-path="url(#76a6c1c431)"><g clip-path="url(#89c34bb556)"><path fill="#00a896" d="M 0.292969 203.296875 L 234.453125 203.296875 L 234.453125 437.457031 L 0.292969 437.457031 Z M 0.292969 203.296875 " fill-opacity="1" fill-rule="nonzero"/></g></g><g clip-path="url(#2e73044e8c)"><g clip-path="url(#5b6874755a)"><path fill="#00a896" d="M 882.828125 77.140625 L 956.132812 77.140625 L 956.132812 150.445312 L 882.828125 150.445312 Z M 882.828125 77.140625 " fill-opacity="1" fill-rule="nonzero"/></g></g></svg>